<?xml version="1.0" encoding="UTF-8"?>
<svg width="561px" height="113px" viewBox="0 0 561 113" version="1.1" xmlns="http://www.w3.org/2000/svg" xmlns:xlink="http://www.w3.org/1999/xlink">
    <!-- Generator: Sketch 53.2 (72643) - https://sketchapp.com -->
    <title>Artboard</title>
    <desc>Created with Sketch.</desc>
    <g id="Artboard" stroke="none" stroke-width="1" fill="none" fill-rule="evenodd">
        <g id="Group" transform="translate(22.000000, 33.000000)" fill="#000000">
            <path d="M34.1410166,22.0608426 L24.0379739,22.0608426 C23.5802524,22.0608426 23.2087682,21.6847664 23.2087682,21.2213868 C23.2087682,20.7580071 23.5802524,20.3819309 24.0379739,20.3819309 L34.1439649,20.3819309 C34.6016864,20.3819309 34.9731706,20.7580071 34.9731706,21.2213868 C34.9731706,21.6847664 34.5987381,22.0608426 34.1410166,22.0608426 L34.1410166,22.0608426 Z M34.9702223,29.6040064 C34.9702223,29.1406268 34.5987381,28.7645506 34.1410166,28.7645506 L24.0379739,28.7645506 C23.5802524,28.7645506 23.2087682,29.1406268 23.2087682,29.6040064 C23.2087682,30.0673861 23.5802524,30.4434623 24.0379739,30.4434623 L34.1439649,30.4434623 C34.5987381,30.4434623 34.9702223,30.0673861 34.9702223,29.6040064 L34.9702223,29.6040064 Z M31.05416,25.4126966 C31.05416,24.949317 30.6826759,24.5732407 30.2249543,24.5732407 L15.8292057,24.5732407 C15.3714842,24.5732407 15,24.949317 15,25.4126966 C15,25.8760762 15.3714842,26.2521525 15.8292057,26.2521525 L30.2249543,26.2521525 C30.6826759,26.2521525 31.05416,25.8760762 31.05416,25.4126966 L31.05416,25.4126966 Z M50.1575859,32 C50.4140869,31.9940305 52.6857421,31.9507519 53.4773572,31.8395707 C57.7818562,31.2336701 65,29.6010217 65,25.4768683 C64.9970517,21.4191252 57.7700631,19.7752841 53.4633528,19.1574446 C52.7115396,19.0492481 50.4575741,19.0059695 50.1863317,19 L38.4138216,19 C37.9561,19 37.5846158,19.3760762 37.5846158,19.8394559 L37.5846158,31.1486052 C37.5846158,31.6119848 37.9561,31.9880611 38.4138216,31.9880611 L50.1465299,32 L50.1575859,32 L50.1575859,32 Z" id="Page-1"></path>
            <path d="M19.1410166,3.06084261 L9.03797394,3.06084261 C8.58025237,3.06084261 8.20876821,2.68476639 8.20876821,2.22138675 C8.20876821,1.75800712 8.58025237,1.38193089 9.03797394,1.38193089 L19.1439649,1.38193089 C19.6016864,1.38193089 19.9731706,1.75800712 19.9731706,2.22138675 C19.9731706,2.68476639 19.5987381,3.06084261 19.1410166,3.06084261 L19.1410166,3.06084261 Z M19.9702223,10.6040064 C19.9702223,10.1406268 19.5987381,9.76455057 19.1410166,9.76455057 L9.03797394,9.76455057 C8.58025237,9.76455057 8.20876821,10.1406268 8.20876821,10.6040064 C8.20876821,11.0673861 8.58025237,11.4434623 9.03797394,11.4434623 L19.1439649,11.4434623 C19.5987381,11.4434623 19.9702223,11.0673861 19.9702223,10.6040064 L19.9702223,10.6040064 Z M16.05416,6.41269659 C16.05416,5.94931696 15.6826759,5.57324073 15.2249543,5.57324073 L0.829205731,5.57324073 C0.371484168,5.57324073 0,5.94931696 0,6.41269659 C0,6.87607623 0.371484168,7.25215245 0.829205731,7.25215245 L15.2249543,7.25215245 C15.6826759,7.25215245 16.05416,6.87607623 16.05416,6.41269659 L16.05416,6.41269659 Z M35.1575859,13 C35.4140869,12.9940305 37.6857421,12.9507519 38.4773572,12.8395707 C42.7818562,12.2336701 50,10.6010217 50,6.47686833 C49.9970517,2.41912524 42.7700631,0.775284124 38.4633528,0.15744461 C37.7115396,0.0492480771 35.4575741,0.0059694639 35.1863317,-2.84217094e-14 L23.4138216,-2.84217094e-14 C22.9561,-2.84217094e-14 22.5846158,0.376076225 22.5846158,0.83945586 L22.5846158,12.1486052 C22.5846158,12.6119848 22.9561,12.9880611 23.4138216,12.9880611 L35.1465299,13 L35.1575859,13 L35.1575859,13 Z" id="Page-1"></path>
            <path d="M29.1410166,43.0608426 L19.0379739,43.0608426 C18.5802524,43.0608426 18.2087682,42.6847664 18.2087682,42.2213868 C18.2087682,41.7580071 18.5802524,41.3819309 19.0379739,41.3819309 L29.1439649,41.3819309 C29.6016864,41.3819309 29.9731706,41.7580071 29.9731706,42.2213868 C29.9731706,42.6847664 29.5987381,43.0608426 29.1410166,43.0608426 L29.1410166,43.0608426 Z M29.9702223,50.6040064 C29.9702223,50.1406268 29.5987381,49.7645506 29.1410166,49.7645506 L19.0379739,49.7645506 C18.5802524,49.7645506 18.2087682,50.1406268 18.2087682,50.6040064 C18.2087682,51.0673861 18.5802524,51.4434623 19.0379739,51.4434623 L29.1439649,51.4434623 C29.5987381,51.4434623 29.9702223,51.0673861 29.9702223,50.6040064 L29.9702223,50.6040064 Z M26.05416,46.4126966 C26.05416,45.949317 25.6826759,45.5732407 25.2249543,45.5732407 L10.8292057,45.5732407 C10.3714842,45.5732407 10,45.949317 10,46.4126966 C10,46.8760762 10.3714842,47.2521525 10.8292057,47.2521525 L25.2249543,47.2521525 C25.6826759,47.2521525 26.05416,46.8760762 26.05416,46.4126966 L26.05416,46.4126966 Z M48.4773572,52.8395707 C52.7818562,52.2336701 60,50.6010217 60,46.4768683 C59.9970517,42.4191252 52.7700631,40.7752841 48.4633528,40.1574446 C47.7115396,40.0492481 45.4575741,40.0059695 45.1863317,40 L33.4138216,40 C32.9561,40 32.5846158,40.3760762 32.5846158,40.8394559 L32.5846158,52.1486052 C32.5846158,52.6119848 32.9561,52.9880611 33.4138216,52.9880611 L45.1465299,53 L45.1575859,53 C45.4140869,52.9940305 47.6857421,52.9507519 48.4773572,52.8395707 Z" id="Page-1"></path>
        </g>
        <text id="Bullets.vim" font-family="ChangaOne, Changa One" font-size="84" font-weight="normal" fill="#000000">
            <tspan x="102.268" y="86">Bullets.vim</tspan>
        </text>
    </g>
</svg>